<svg xmlns="http://www.w3.org/2000/svg" xmlns:xlink="http://www.w3.org/1999/xlink" width="1078" height="229" version="1.1" viewBox="0 0 1078 229"><title>Background image</title><desc>Created with Sketch.</desc><defs><rect id="path-1" width="1070" height="221" x="0" y="0" rx="2"/><filter id="filter-3" width="101.3%" height="106.3%" x="-.7%" y="-2.3%" filterUnits="objectBoundingBox"><feOffset dx="0" dy="2" in="SourceAlpha" result="shadowOffsetOuter1"/><feGaussianBlur in="shadowOffsetOuter1" result="shadowBlurOuter1" stdDeviation="2"/><feColorMatrix in="shadowBlurOuter1" type="matrix" values="0 0 0 0 0.890196078 0 0 0 0 0.91372549 0 0 0 0 0.952941176 0 0 0 1 0"/></filter></defs><g id="Pages" fill="none" fill-rule="evenodd" stroke="none" stroke-width="1" opacity=".5"><g id="Content-Type-Builder---Home-view" transform="translate(-262.000000, -158.000000)"><g id="Container" transform="translate(265.000000, 82.000000)"><g id="Content"><g id="Empty" transform="translate(1.000000, 78.000000)"><g id="Background-image"><mask id="mask-2" fill="#fff"><use xlink:href="#path-1"/></mask><g id="Background"><use fill="#000" fill-opacity="1" filter="url(#filter-3)" xlink:href="#path-1"/><use fill="#FFF" fill-rule="evenodd" xlink:href="#path-1"/></g><g id="paint-brush" fill="#F3F3F4" fill-rule="nonzero" mask="url(#mask-2)"><g id="Shape"><path d="M225.558659,0 C232.07635,0 237.77933,2.16480447 242.667598,6.49441341 C247.555866,10.8240223 250,16.2476723 250,22.7653631 C250,28.6312849 247.905028,35.6610801 243.715084,43.8547486 C212.802607,102.420857 191.154562,137.430168 178.77095,148.882682 C169.739292,157.35568 159.590317,161.592179 148.324022,161.592179 C136.592179,161.592179 126.513035,157.285847 118.086592,148.673184 C109.660149,140.060521 105.446927,129.841713 105.446927,118.01676 C105.446927,106.098696 109.729981,96.2290503 118.296089,88.4078212 L207.402235,7.54189944 C212.895717,2.51396648 218.947858,0 225.558659,0 Z M98.603352,144.413408 C102.234637,151.489758 107.192737,157.541899 113.477654,162.569832 C119.76257,167.597765 126.769088,171.13594 134.497207,173.184358 L134.636872,183.100559 C135.009311,202.932961 128.980447,219.087523 116.550279,231.564246 C104.120112,244.040968 87.8957169,250.27933 67.877095,250.27933 C56.424581,250.27933 46.2756052,248.114525 37.4301676,243.784916 C28.58473,239.455307 21.4851024,233.519553 16.1312849,225.977654 C10.7774674,218.435754 6.75046555,209.916201 4.05027933,200.418994 C1.35009311,190.921788 0,180.679702 0,169.692737 C0.651769088,170.158287 2.56052142,171.554935 5.72625698,173.882682 C8.89199255,176.210428 11.7783985,178.282123 14.3854749,180.097765 C16.9925512,181.913408 19.7392924,183.612663 22.6256983,185.195531 C25.5121043,186.778399 27.6536313,187.569832 29.0502793,187.569832 C32.867784,187.569832 35.4283054,185.8473 36.7318436,182.402235 C39.0595903,176.256983 41.7364991,171.019553 44.7625698,166.689944 C47.7886406,162.360335 51.0242086,158.82216 54.4692737,156.075419 C57.9143389,153.328678 62.0111732,151.117318 66.7597765,149.441341 C71.5083799,147.765363 76.3035382,146.578212 81.1452514,145.879888 C85.9869646,145.181564 91.8063315,144.692737 98.603352,144.413408 Z" transform="translate(25.000000, -12.000000)"/></g></g><rect id="Rectangle-9" width="8" height="8" x="313" y="67" stroke="#E3E3E5" stroke-width="2" mask="url(#mask-2)" rx="4"/><rect id="Rectangle-9" width="4" height="4" x="243" y="117" stroke="#E3E3E5" stroke-width="2" mask="url(#mask-2)" rx="2"/><rect id="Rectangle-9" width="2" height="2" x="333" y="217" stroke="#E3E3E5" stroke-width="2" mask="url(#mask-2)" rx="1"/><rect id="Rectangle-9" width="12" height="12" x="222" y="196" fill="#F0F0F3" mask="url(#mask-2)" rx="5"/><rect id="Rectangle-9" width="10" height="10" x="363" y="147" stroke="#E3E3E5" stroke-width="2" mask="url(#mask-2)" rx="5"/><rect id="Rectangle-9" width="12" height="12" x="753" y="157" stroke="#E3E3E5" stroke-width="2" mask="url(#mask-2)" rx="6"/><rect id="Rectangle-9" width="5" height="5" x="863" y="97" stroke="#E3E3E5" stroke-width="2" mask="url(#mask-2)" rx="2.5"/><rect id="Rectangle-9" width="3" height="3" x="663" y="197" stroke="#E3E3E5" stroke-width="2" mask="url(#mask-2)" rx="1.5"/><rect id="Rectangle-9" width="10" height="10" x="742" y="56" fill="#F0F0F3" mask="url(#mask-2)" rx="5"/><rect id="Rectangle-9" width="9" height="9" x="442" y="176" fill="#F0F0F3" mask="url(#mask-2)" rx="4.5"/><g id="star" fill="#E3E3E5" fill-rule="nonzero" mask="url(#mask-2)"><g id="Shape"><path d="M10,3.69591346 C10,3.78405449 9.94791667,3.88020833 9.84375,3.984375 L7.66225962,6.11177885 L8.17908654,9.11658654 C8.18309295,9.14463141 8.18509615,9.18469551 8.18509615,9.23677885 C8.18509615,9.32091346 8.1640625,9.39202724 8.12199519,9.45012019 C8.07992788,9.50821314 8.01883013,9.53725962 7.93870192,9.53725962 C7.86258013,9.53725962 7.78245192,9.51322115 7.69831731,9.46514423 L5,8.046875 L2.30168269,9.46514423 C2.21354167,9.51322115 2.13341346,9.53725962 2.06129808,9.53725962 C1.97716346,9.53725962 1.9140625,9.50821314 1.87199519,9.45012019 C1.82992788,9.39202724 1.80889423,9.32091346 1.80889423,9.23677885 C1.80889423,9.21274038 1.81290064,9.17267628 1.82091346,9.11658654 L2.33774038,6.11177885 L0.150240385,3.984375 C0.0500801282,3.87620192 0,3.78004808 0,3.69591346 C0,3.54767628 0.112179487,3.45552885 0.336538462,3.41947115 L3.35336538,2.98076923 L4.70552885,0.246394231 C4.78165064,0.0821314103 4.87980769,0 5,0 C5.12019231,0 5.21834936,0.0821314103 5.29447115,0.246394231 L6.64663462,2.98076923 L9.66346154,3.41947115 C9.88782051,3.45552885 10,3.54767628 10,3.69591346 Z" transform="translate(629.000000, 121.000000)"/></g></g><g id="star" fill="#E3E3E5" fill-rule="nonzero" mask="url(#mask-2)"><g id="Shape"><path d="M10,3.69591346 C10,3.78405449 9.94791667,3.88020833 9.84375,3.984375 L7.66225962,6.11177885 L8.17908654,9.11658654 C8.18309295,9.14463141 8.18509615,9.18469551 8.18509615,9.23677885 C8.18509615,9.32091346 8.1640625,9.39202724 8.12199519,9.45012019 C8.07992788,9.50821314 8.01883013,9.53725962 7.93870192,9.53725962 C7.86258013,9.53725962 7.78245192,9.51322115 7.69831731,9.46514423 L5,8.046875 L2.30168269,9.46514423 C2.21354167,9.51322115 2.13341346,9.53725962 2.06129808,9.53725962 C1.97716346,9.53725962 1.9140625,9.50821314 1.87199519,9.45012019 C1.82992788,9.39202724 1.80889423,9.32091346 1.80889423,9.23677885 C1.80889423,9.21274038 1.81290064,9.17267628 1.82091346,9.11658654 L2.33774038,6.11177885 L0.150240385,3.984375 C0.0500801282,3.87620192 0,3.78004808 0,3.69591346 C0,3.54767628 0.112179487,3.45552885 0.336538462,3.41947115 L3.35336538,2.98076923 L4.70552885,0.246394231 C4.78165064,0.0821314103 4.87980769,0 5,0 C5.12019231,0 5.21834936,0.0821314103 5.29447115,0.246394231 L6.64663462,2.98076923 L9.66346154,3.41947115 C9.88782051,3.45552885 10,3.54767628 10,3.69591346 Z" transform="translate(389.000000, 1.000000)"/></g></g></g></g></g></g></g></g></svg>