<svg xmlns="http://www.w3.org/2000/svg" xmlns:xlink="http://www.w3.org/1999/xlink" width="41" height="41" version="1.1" viewBox="0 0 41 41"><title>One-to-many</title><desc>Created with Sketch.</desc><defs><rect id="path-1" width="41" height="41" x="0" y="0" rx="2"/></defs><g id="Pages" fill="none" fill-rule="evenodd" stroke="none" stroke-width="1"><g id="Content-Type-Builder---Content-Type-view" transform="translate(-756.000000, -389.000000)"><g id="Container"><g id="Content"><g id="Popup---Add-New-Relation---Define-Relation" transform="translate(427.000000, 230.000000)"><g id="One-to-many" transform="translate(329.000000, 159.000000)"><g id="Rectangle-13"><use fill="#FFF" fill-rule="evenodd" xlink:href="#path-1"/><rect width="40" height="40" x=".5" y=".5" stroke="#1C5DE7" stroke-width="1" rx="2"/></g><rect id="Rectangle-15" width="14" height="2" x="13" y="20.75" fill="#1C5DE7"/><rect id="Rectangle-15" width="17.5" height="2" x="11" y="15.5" fill="#1C5DE7" transform="translate(19.750000, 16.499833) rotate(-26.000000) translate(-19.750000, -16.499833)"/><rect id="Rectangle-14" width="6" height="6" x="6.5" y="18.5" stroke="#1C5DE7" rx="3"/><rect id="Rectangle-14" width="6" height="6" x="27.5" y="18.5" stroke="#1C5DE7" rx="3"/><rect id="Rectangle-14" width="6" height="6" x="27.5" y="8.5" stroke="#1C5DE7" rx="3"/><rect id="Rectangle-15" width="17.5" height="1.5" x="11" y="26" fill="#1C5DE7" transform="translate(19.750000, 26.750000) scale(-1, 1) rotate(-26.000000) translate(-19.750000, -26.750000)"/><rect id="Rectangle-14" width="6" height="6" x="27.5" y="28.5" stroke="#1C5DE7" rx="3" transform="translate(30.500000, 31.500000) scale(-1, 1) translate(-30.500000, -31.500000)"/></g></g></g></g></g></g></svg>