<svg xmlns="http://www.w3.org/2000/svg" xmlns:xlink="http://www.w3.org/1999/xlink" width="41" height="41" version="1.1" viewBox="0 0 41 41"><title>Many-to-one</title><desc>Created with Sketch.</desc><defs><rect id="path-1" width="41" height="41" x="0" y="0" rx="2"/></defs><g id="Pages" fill="none" fill-rule="evenodd" stroke="none" stroke-width="1"><g id="Content-Type-Builder---Content-Type-view" transform="translate(-806.000000, -389.000000)"><g id="Container"><g id="Content"><g id="Popup---Add-New-Relation---Define-Relation" transform="translate(427.000000, 230.000000)"><g id="Many-to-one" transform="translate(399.500000, 179.500000) scale(-1, 1) translate(-399.500000, -179.500000) translate(379.000000, 159.000000)"><g id="Rectangle-13"><use fill="#FFF" fill-rule="evenodd" xlink:href="#path-1"/><rect width="40" height="40" x=".5" y=".5" stroke="#101622" stroke-opacity=".1" stroke-width="1" rx="2"/></g><rect id="Rectangle-15" width="13" height="1" x="13.5" y="21.25" stroke="#919BAE"/><rect id="Rectangle-15" width="16.5" height="1" x="11.5" y="16" stroke="#919BAE" transform="translate(19.750000, 16.249833) rotate(-26.000000) translate(-19.750000, -16.249833)"/><rect id="Rectangle-14" width="6" height="6" x="6.5" y="18.5" stroke="#919BAE" rx="3"/><rect id="Rectangle-14" width="6" height="6" x="27.5" y="18.5" stroke="#919BAE" rx="3"/><rect id="Rectangle-14" width="6" height="6" x="27.5" y="8.5" stroke="#919BAE" rx="3"/><rect id="Rectangle-15" width="16.5" height="1" x="11.5" y="26.5" stroke="#919BAE" transform="translate(19.750000, 26.750000) scale(-1, 1) rotate(-26.000000) translate(-19.750000, -26.750000)"/><rect id="Rectangle-14" width="6" height="6" x="27.5" y="28.5" stroke="#919BAE" rx="3" transform="translate(30.500000, 31.500000) scale(-1, 1) translate(-30.500000, -31.500000)"/></g></g></g></g></g></g></svg>