<svg xmlns="http://www.w3.org/2000/svg" xmlns:xlink="http://www.w3.org/1999/xlink" width="41" height="41" version="1.1" viewBox="0 0 41 41"><title>Many-to-many</title><desc>Created with Sketch.</desc><defs><rect id="path-1" width="41" height="41" x="0" y="0" rx="2"/></defs><g id="Pages" fill="none" fill-rule="evenodd" stroke="none" stroke-width="1"><g id="Content-Type-Builder---Content-Type-view" transform="translate(-856.000000, -389.000000)"><g id="Container"><g id="Content"><g id="Popup---Add-New-Relation---Define-Relation" transform="translate(427.000000, 230.000000)"><g id="Many-to-many" transform="translate(449.500000, 179.500000) scale(-1, 1) translate(-449.500000, -179.500000) translate(429.000000, 159.000000)"><g id="Rectangle-13"><use fill="#FFF" fill-rule="evenodd" xlink:href="#path-1"/><rect width="40" height="40" x=".5" y=".5" stroke="#101622" stroke-opacity=".1" stroke-width="1" rx="2"/></g><rect id="Rectangle-15" width="13" height="1" x="13.5" y="20.5" stroke="#919BAE"/><rect id="Rectangle-15" width="15" height="1" x="12.5" y="15.5" stroke="#919BAE" transform="translate(20.000000, 15.750000) rotate(-26.000000) translate(-20.000000, -15.750000)"/><rect id="Rectangle-14" width="6" height="6" x="27.5" y="17.5" stroke="#919BAE" rx="3"/><rect id="Rectangle-14" width="6" height="6" x="27.5" y="8.5" stroke="#919BAE" rx="3"/><rect id="Rectangle-15" width="15" height="1" x="12.5" y="25.5" stroke="#919BAE" transform="translate(20.000000, 25.750000) scale(-1, 1) rotate(-26.000000) translate(-20.000000, -25.750000)"/><rect id="Rectangle-14" width="6" height="6" x="27.5" y="26.5" stroke="#919BAE" rx="3" transform="translate(30.500000, 29.500000) scale(-1, 1) translate(-30.500000, -29.500000)"/><rect id="Rectangle-15" width="15" height="1" x="12.871" y="15.5" stroke="#919BAE" transform="translate(20.371276, 15.750000) scale(1, -1) rotate(-26.000000) translate(-20.371276, -15.750000)"/><rect id="Rectangle-14" width="6" height="6" x="6.871" y="17.5" stroke="#919BAE" rx="3" transform="translate(9.871276, 20.500000) scale(1, -1) translate(-9.871276, -20.500000)"/><rect id="Rectangle-14" width="6" height="6" x="6.871" y="8.5" stroke="#919BAE" rx="3" transform="translate(9.871276, 11.500000) scale(1, -1) translate(-9.871276, -11.500000)"/><rect id="Rectangle-15" width="15.949" height="1" x="11.971" y="25.708" stroke="#919BAE" transform="translate(19.944907, 25.957954) rotate(-26.000000) translate(-19.944907, -25.957954)"/><rect id="Rectangle-14" width="6" height="6" x="6.871" y="26.5" stroke="#919BAE" rx="3" transform="translate(9.871276, 29.500000) scale(1, -1) translate(-9.871276, -29.500000)"/></g></g></g></g></g></g></svg>